<svg xmlns="http://www.w3.org/2000/svg" enable-background="new 0 0 66 66" viewBox="0 0 66 66" id="quality"><path d="M21.88 52.72c-1.38.55-2.67.05-3.26-.29-.99-.57-1.67-1.55-1.87-2.67l-.68-3.83L9.5 55.07c-.6.7-.07 2.31 1.38 2l8.13-2.17 2.19 8.13c.16.85 1.71 1.57 2.42.2l4.64-10.29-1.63-1.93L21.88 52.72zM58.77 55.07L51.2 44.55l-1.38.25-.89 4.96c-.2 1.13-.89 2.1-1.88 2.68-.59.34-1.62.81-3.25.29l-4.65-1.68 5.5 12.18c.23.75 1.83 1.35 2.42-.2l2.17-8.13 8.13 2.17C59.02 57.28 59.27 55.72 58.77 55.07zM32.85 14.9c-7.12 0-12.92 5.8-12.92 12.92 0 7.12 5.8 12.92 12.92 12.92s12.92-5.8 12.92-12.92C45.77 20.69 39.97 14.9 32.85 14.9zM38.23 35.34l-5.38-3.91-5.38 3.91 2.06-6.33-5.38-3.91h6.65l2.06-6.33 2.06 6.33h6.65l-5.38 3.91L38.23 35.34z"></path><path d="M46.4,49.3l1.2-6.74l6.73-1.2c1.24-0.41,1.12-1.35,0.99-1.71L53,33.22l5.23-4.42c0.85-0.98,0.29-1.73,0-1.97L53,22.41l2.32-6.44c0.13-0.36,0.2-1.4-0.99-1.71l-6.73-1.2l-1.2-6.74c-0.07-0.37-0.64-1.34-1.71-0.99l-6.44,2.32l-4.42-5.23c-0.49-0.58-1.48-0.58-1.97,0l-4.42,5.23l-6.44-2.32c-0.57-0.22-1.52,0.03-1.71,0.99l-1.2,6.74l-6.74,1.2c-1.06,0.22-1.2,1.26-0.99,1.71l2.32,6.44l-5.23,4.42c-0.81,0.8-0.4,1.68,0,1.97l5.23,4.41l-2.32,6.44c-0.13,0.36-0.24,1.38,0.99,1.71l6.74,1.2l1.2,6.74c0.31,1.17,1.35,1.12,1.71,0.99l6.44-2.32l4.42,5.23c0.24,0.29,1.06,0.86,1.97,0l4.42-5.23l6.44,2.32C45.93,50.58,46.33,49.68,46.4,49.3z M32.85,43.32c-8.55,0-15.5-6.95-15.5-15.5s6.95-15.5,15.5-15.5c8.55,0,15.5,6.95,15.5,15.5S41.4,43.32,32.85,43.32z"></path></svg>