<svg width="155" height="47" viewBox="0 0 155 47" fill="none" xmlns="http://www.w3.org/2000/svg">
<path d="M21.8673 14.104H15.3153V8.128C15.3153 7.264 15.1713 6.712 14.8833 6.472C14.5953 6.184 14.0193 6.04 13.1553 6.04H9.48335C8.61934 6.04 8.04334 6.184 7.75534 6.472C7.46735 6.712 7.32335 7.264 7.32335 8.128V38.872C7.32335 39.736 7.46735 40.312 7.75534 40.6C8.04334 40.84 8.61934 40.96 9.48335 40.96H13.1553C14.0193 40.96 14.5953 40.84 14.8833 40.6C15.1713 40.312 15.3153 39.736 15.3153 38.872V27.856H11.7153V22.816H21.8673V39.664C21.8673 43.936 19.6353 46.072 15.1713 46.072H7.46734C3.00334 46.072 0.771345 43.936 0.771345 39.664V7.264C0.771345 3.04 3.00334 0.927997 7.46734 0.927997H15.1713C19.6353 0.927997 21.8673 3.04 21.8673 7.264V14.104ZM39.4235 27.784V46H32.9435V0.927997H47.7035C52.1675 0.927997 54.3995 3.04 54.3995 7.264V21.376C54.3995 25.024 52.7915 27.112 49.5755 27.64L56.7035 46H49.7195L42.9515 27.784H39.4235ZM39.4235 6.184V22.6H45.7595C46.6235 22.6 47.1995 22.48 47.4875 22.24C47.7755 21.952 47.9195 21.376 47.9195 20.512V8.272C47.9195 7.408 47.7755 6.856 47.4875 6.616C47.1995 6.328 46.6235 6.184 45.7595 6.184H39.4235ZM82.3704 46L80.5704 35.56H71.0664L69.4104 46H62.9304L70.9224 0.927997H80.3544L88.9224 46H82.3704ZM71.8584 30.304H79.7064L75.6024 6.544L71.8584 30.304ZM113.89 0.927997H119.866V46H113.314L103.81 13.456V46H97.8335V0.927997H104.674L113.89 32.536V0.927997ZM131.829 0.927997H147.525C151.989 0.927997 154.221 3.04 154.221 7.264V39.664C154.221 43.888 151.989 46 147.525 46H131.829V0.927997ZM147.669 38.8V8.128C147.669 7.264 147.525 6.712 147.237 6.472C146.949 6.184 146.373 6.04 145.509 6.04H138.381V40.888H145.509C146.373 40.888 146.949 40.768 147.237 40.528C147.525 40.24 147.669 39.664 147.669 38.8Z" fill="black"/>
</svg>
